<svg width="1200" height="360" viewBox="0 0 1200 360" fill="none" xmlns="http://www.w3.org/2000/svg">
  <defs>
    <linearGradient id="marketo-gradient" x1="88" y1="55" x2="302" y2="294" gradientUnits="userSpaceOnUse">
      <stop offset="0" stop-color="#22D3EE"/>
      <stop offset="0.48" stop-color="#D946EF"/>
      <stop offset="1" stop-color="#F59E0B"/>
    </linearGradient>
    <linearGradient id="marketo-word" x1="350" y1="94" x2="818" y2="263" gradientUnits="userSpaceOnUse">
      <stop stop-color="#0F172A"/>
      <stop offset="1" stop-color="#334155"/>
    </linearGradient>
    <filter id="soft-shadow" x="24" y="24" width="324" height="324" filterUnits="userSpaceOnUse" color-interpolation-filters="sRGB">
      <feDropShadow dx="0" dy="18" stdDeviation="18" flood-color="#0F172A" flood-opacity="0.18"/>
    </filter>
  </defs>

  <rect width="1200" height="360" rx="52" fill="#F8FAFC"/>
  <rect x="42" y="42" width="276" height="276" rx="72" fill="#0F172A" filter="url(#soft-shadow)"/>
  <path d="M116 164C116 130.863 142.863 104 176 104H184C184 84.1177 200.118 68 220 68C239.882 68 256 84.1177 256 104H264C297.137 104 324 130.863 324 164V254C324 276.091 306.091 294 284 294H156C133.909 294 116 276.091 116 254V164Z" fill="url(#marketo-gradient)" transform="translate(-42 -12) scale(1.05)"/>
  <path d="M153 98C153 72.5949 173.595 52 199 52C224.405 52 245 72.5949 245 98" stroke="#F8FAFC" stroke-width="18" stroke-linecap="round" transform="translate(-20 10)"/>
  <path d="M146 202L184 154L222 204L260 150V248H230V220L220 235H196L184 220V248H146V202Z" fill="#F8FAFC"/>
  <path d="M247 107L282 119L258 145L247 107Z" fill="#FACC15"/>
  <circle cx="279" cy="248" r="13" fill="#22D3EE"/>

  <text x="360" y="170" fill="url(#marketo-word)" font-family="Plus Jakarta Sans, Inter, Arial, sans-serif" font-size="96" font-weight="900" letter-spacing="0">Marketo</text>
  <text x="366" y="222" fill="#64748B" font-family="Plus Jakarta Sans, Inter, Arial, sans-serif" font-size="28" font-weight="700" letter-spacing="3">MULTI-VENDOR MARKETPLACE</text>
  <path d="M360 252H724" stroke="#D946EF" stroke-width="10" stroke-linecap="round"/>
  <path d="M748 252H832" stroke="#22D3EE" stroke-width="10" stroke-linecap="round"/>
  <path d="M856 252H900" stroke="#F59E0B" stroke-width="10" stroke-linecap="round"/>
</svg>